<?xml version="1.0" encoding="utf-8"?>
<!-- Generator: Adobe Illustrator 19.0.0, SVG Export Plug-In . SVG Version: 6.00 Build 0)  -->
<svg version="1.1" xmlns="http://www.w3.org/2000/svg" xmlns:xlink="http://www.w3.org/1999/xlink" x="0px" y="0px"
	 viewBox="0 0 58.6 38.2" style="enable-background:new 0 0 58.6 38.2;" xml:space="preserve">
<style type="text/css">
	.st0{display:none;}
	.st1{fill:#FFFFFF;}
</style>
<g id="Layer_1" class="st0">
	
		<image style="display:inline;overflow:visible;" width="219" height="80" xlink:href="Kofilogowhite.png"  transform="matrix(1 0 0 1 311 257.28)">
	</image>
</g>
<g id="Layer_2">
	<path class="st1" d="M44,0H2.7C1.2,0,0,1.2,0,2.6v29.2c0,3.5,2.8,6.3,6.3,6.3h30c3.5,0,6.3-2.8,6.3-6.3v-3.3h1.7
		c8.1,0,14.6-6.8,14.2-14.9C58.3,5.9,51.7,0,44,0z M21.5,30.5c0,0-12.3-10.5-12.3-14.5s2-6.6,6.1-6.6c4.1,0,6.1,3,6.1,3s2-3,6.1-3
		c4.1,0,6.1,2.6,6.1,6.6S21.5,30.5,21.5,30.5z M44.4,21.7c-0.6,0-1.2-0.1-1.7-0.2V7c0.5-0.1,1.1-0.2,1.7-0.2c4.1,0,7.4,3.3,7.4,7.4
		C51.8,18.3,48.5,21.7,44.4,21.7z"/>
</g>
</svg>
