<svg viewBox="2.3 484.3 611.9 117.80000000000001" xmlns="http://www.w3.org/2000/svg" width="2500" height="-1503"><path d="M103.1 485.8c4.2 7 5.7 14 5.7 22.4 0 28-23.8 65.9-43.4 91.1H20.5L2.3 491.5l40.6-2.8 9.8 77.1c8.4-14 19.7-37.9 19.7-53.2 0-8.4-1.4-14-4.2-19.7zm51.8 47.7c7 0 25.2-2.8 25.2-14 0-5.7-2.8-7-7-7-8.3 0-18.2 8.4-18.2 21zm-1.3 21c0 12.7 7 18.2 16.8 18.2s19.7-2.8 32.2-8.4l-5.7 30.8c-8.4 4.2-22.4 7-36.4 7-33.5 0-46.2-21-46.2-46.2 0-33.5 19.7-68.6 60.2-68.6 22.4 0 35 12.7 35 30.8 1.5 26.6-35 36.4-55.9 36.4zM324.4 511c0 4.2 0 9.8-1.4 14l-11.2 74.2H274l11.2-68.6c0-1.4 1.4-5.7 1.4-7 0-5.7-2.8-5.7-7-5.7-5.7 0-9.8 2.8-12.7 4.2l-14 77.1H215l16.8-112.1h33.5v8.4c8.4-5.7 18.2-11.2 32.2-11.2 19.9 3 26.9 12.7 26.9 26.7zm113.4-12.5c11.2-8.4 21-12.7 35-12.7 19.7 0 26.7 9.8 26.7 25.2 0 4.2 0 9.8-1.4 14L487 599.3h-37.9l11.2-70v-5.7c0-5.7-2.8-7-7-7s-9.8 1.4-12.7 4.2L428 599.2h-37.9l11.2-70v-5.7c0-5.7-2.8-7-7-7-5.7 0-9.8 2.8-12.7 4.2L369 599h-37.9L348 487h32.2l1.4 9.8c7-5.7 18.2-11.2 32.2-11.2 11.4 1.7 19.7 5.9 24 12.9zM575 532.1c0-9.8-2.8-15.4-9.8-15.4-15.4 0-18.2 26.7-18.2 40.6 0 9.8 2.8 16.8 9.8 16.8 15.5-1.4 18.2-29.4 18.2-42zm-65.8 22.4c0-35 18.2-68.6 61.6-68.6 32.2 0 43.4 19.7 43.4 44.9 0 35-18.2 70-61.6 70-32.2 1.3-43.4-19.7-43.4-46.3z" fill="#3d95ce"/></svg>