<?xml version="1.0" standalone="no"?>
<!DOCTYPE svg PUBLIC "-//W3C//DTD SVG 20010904//EN"
 "http://www.w3.org/TR/2001/REC-SVG-20010904/DTD/svg10.dtd">
<svg version="1.0" xmlns="http://www.w3.org/2000/svg"
 width="512.000000pt" height="512.000000pt" viewBox="0 0 512.000000 512.000000"
 preserveAspectRatio="xMidYMid meet">
<metadata>
Created by potrace 1.11, written by Peter Selinger 2001-2013
</metadata>
<g transform="translate(0.000000,512.000000) scale(0.100000,-0.100000)"
fill="#000000" stroke="none">
<path d="M1962 5008 c0 -40 0 -79 -1 -85 -1 -9 -25 -13 -86 -13 l-85 0 0 -85
c0 -61 4 -85 13 -86 6 0 45 0 85 1 82 1 75 12 74 -107 l-1 -63 87 0 87 0 0 83
-1 82 -86 3 -85 3 1 82 1 82 83 3 c68 2 82 0 83 -13 0 -8 1 -46 2 -85 l0 -70
87 0 86 0 -1 83 -1 82 -86 3 -86 3 1 82 2 82 -87 3 -86 3 0 -73z"/>
<path d="M3932 4820 c-4 -3 -7 -42 -6 -86 l0 -82 -79 2 c-43 1 -82 -1 -86 -4
-4 -3 -7 -41 -7 -85 l1 -80 70 -2 c104 -3 101 -5 100 83 -1 89 0 90 101 89
l70 -2 -2 81 c-1 45 -2 84 -3 87 -1 6 -150 6 -159 -1z"/>
<path d="M4102 4645 c-3 -5 -6 -44 -7 -87 l0 -76 85 0 86 1 0 85 -1 85 -78 1
c-44 1 -82 -3 -85 -9z"/>
<path d="M2840 4553 c-303 -63 -552 -310 -604 -599 -18 -99 -12 -91 -69 -98
-149 -20 -130 -25 -175 41 -74 108 -184 201 -312 261 -69 33 -197 63 -277 65
-64 2 -76 -1 -95 -21 -23 -22 -23 -26 -26 -326 l-3 -303 -42 -23 c-260 -143
-522 -389 -682 -642 l-30 -47 -190 -1 c-104 0 -202 -3 -217 -7 -40 -11 -96
-69 -108 -111 -8 -25 -10 -214 -8 -583 l3 -545 27 -41 c45 -69 73 -76 302 -78
155 -1 201 -4 204 -14 6 -18 108 -167 141 -204 118 -137 207 -224 320 -311 42
-32 100 -72 128 -88 29 -17 56 -35 60 -41 4 -6 7 -158 8 -337 0 -322 1 -325
24 -366 14 -25 40 -51 65 -65 40 -23 47 -23 321 -24 154 0 296 3 316 8 49 12
105 66 118 114 6 21 11 109 11 196 0 146 1 158 18 153 9 -3 42 -8 72 -11 30
-3 62 -8 70 -10 37 -10 209 -19 355 -19 230 0 336 11 589 60 66 12 236 60 319
89 54 19 101 35 105 35 4 0 7 -107 7 -238 0 -226 1 -239 22 -283 16 -31 36
-53 65 -69 43 -24 45 -24 338 -24 335 0 346 2 397 77 l28 42 1 551 1 551 44
59 c144 190 240 415 283 661 4 22 13 24 49 10 45 -19 50 -38 52 -222 1 -137 3
-154 24 -191 30 -53 84 -84 153 -88 29 -2 59 -1 66 2 8 3 12 30 12 87 l0 82
-42 -1 -43 -1 -1 155 c-1 134 -4 162 -21 202 -36 80 -96 128 -192 152 l-43 12
-4 74 c-2 41 -6 91 -10 110 -3 19 -8 46 -11 60 -32 181 -126 394 -251 570 -56
78 -240 276 -317 340 -105 87 -301 214 -408 264 l-39 18 8 71 c14 141 6 232
-31 345 -89 264 -305 456 -584 518 -54 12 -228 10 -291 -3z"/>
<path d="M3931 4475 c-6 -8 -7 -104 -2 -153 1 -10 22 -12 84 -10 l82 3 0 78
c1 43 -3 81 -8 84 -17 10 -148 8 -156 -2z"/>
<path d="M4694 4058 l1 -83 -86 -3 -86 -3 0 -84 0 -84 86 -3 86 -3 -1 -83 -1
-83 86 3 86 3 0 80 0 80 -86 3 -86 3 1 84 0 84 85 3 85 3 1 83 1 82 -87 0 -87
0 2 -82z"/>
<path d="M4864 3888 l1 -83 85 0 85 0 0 80 -1 80 -85 3 -85 3 0 -83z"/>
</g>
</svg>
