<svg width="512pt" height="512pt" version="1.1" viewBox="0 -4 512 512" xmlns="http://www.w3.org/2000/svg">
 <path d="m363.27 150.02c-12.176 35.684-50.977 54.738-86.656 42.562-27.215-9.2891-45.691-34.633-46.211-63.383-10.66 1.0117-21.258 2.6055-31.742 4.7773-11.047-24.395-35.34-40.078-62.121-40.105v61.953c-33.332 16.156-60.867 42.199-78.848 74.582h-40.621c-4.7109 0-8.5312 3.8203-8.5312 8.5312v102.4c0 4.7109 3.8203 8.5312 8.5312 8.5312h40.621c16.301 29.496 40.699 53.715 70.312 69.805v66.73c0 4.7109 3.8203 8.5312 8.5352 8.5312h51.199c4.7109 0 8.5312-3.8203 8.5312-8.5312v-40.707c19.617 4.3477 39.645 6.5508 59.734 6.5742 38.254 0.24609 76.105-7.8164 110.93-23.641v57.773c0 4.7109 3.8203 8.5312 8.5352 8.5312h51.199c4.7109 0 8.5312-3.8203 8.5312-8.5312v-108.38c21.586-24.234 33.707-55.441 34.133-87.895 0-59.816-42.664-112.04-106.07-140.12z" fill="#ffb655"/>
 <path d="m298.67 59.734c-37.703 0-68.27 30.562-68.27 68.266v1.1953c0.67969 37.695 31.789 67.707 69.484 67.027 28.75-0.51562 54.094-18.992 63.383-46.207 2.4375-7.082 3.6797-14.523 3.668-22.016 0-37.703-30.562-68.266-68.266-68.266z" fill="#ffde55"/>
 <g fill="#3e3d42">
  <path d="m128 221.87c-9.4258 0-17.066-7.6406-17.066-17.066h-17.066c0 18.852 15.281 34.133 34.133 34.133s34.133-15.281 34.133-34.133h-17.066c0 9.4258-7.6406 17.066-17.066 17.066z"/>
  <path d="m503.46 341.33v-25.598c0-14.141-11.461-25.602-25.598-25.602 0-58.879-39.879-113.7-104.45-144.71 9.6602-41.277-15.969-82.57-57.246-92.23s-82.57 15.969-92.23 57.246c-0.85547 3.6484-1.4414 7.3555-1.75 11.09-6.2812 0.75-12.582 1.6367-18.859 2.7969-13.652-24.047-39.148-38.93-66.801-38.988-4.7109 0-8.5312 3.8203-8.5312 8.5352v56.797c-31.324 16.176-57.453 40.855-75.395 71.203h-35.539c-9.4258 0-17.066 7.6406-17.066 17.066v102.4c0 9.4258 7.6406 17.07 17.066 17.07h35.543c16.234 27.422 39.262 50.203 66.855 66.148v61.852c0 9.4258 7.6445 17.066 17.07 17.066h51.199c9.4258 0 17.066-7.6406 17.066-17.066v-30.277c51.551 9.5352 104.74 4.5117 153.6-14.508v44.785c0 9.4258 7.6406 17.066 17.07 17.066h51.199c9.4258 0 17.066-7.6406 17.066-17.066v-105.28c17.727-21.039 29.129-46.672 32.895-73.926h1.2383c4.7109 0 8.5352 3.8203 8.5352 8.5352v25.602c0 9.4258 7.6406 17.066 17.066 17.066h8.5312v-17.066h-8.5352zm-264.53-213.33c0-32.988 26.742-59.734 59.734-59.734 32.988 0 59.73 26.746 59.73 59.734 0.011718 6.5586-1.0781 13.074-3.2148 19.277-8.2227 24.203-30.957 40.473-56.516 40.457-1.9961 0-3.9883-0.10156-5.9766-0.30859-30.047-3.1836-53.062-28.184-53.758-58.395zm189.77 244.49c-1.3164 1.5469-2.0391 3.5078-2.0391 5.5391v108.38h-51.199v-57.773c0-4.7109-3.8203-8.5312-8.5352-8.5312-1.2422 0.003906-2.4648 0.27344-3.5938 0.79297-51.863 23.152-109.82 28.934-165.24 16.477-4.6016-1.0117-9.1562 1.8984-10.168 6.5-0.13281 0.60156-0.19922 1.2148-0.19922 1.8281v40.707h-51.203v-66.73c0.007812-3.0547-1.6211-5.8828-4.2656-7.4102-28.199-15.273-51.441-38.289-66.996-66.336-1.4727-2.8281-4.3984-4.5977-7.5859-4.5898h-40.617v-102.4h40.621c3.1758-0.003906 6.0898-1.7734 7.5586-4.5898 17.117-30.859 43.387-55.645 75.188-70.938 2.8438-1.4609 4.6328-4.3906 4.6328-7.5859v-52.805c20.137 2.9844 37.387 15.969 45.824 34.492 1.6484 3.625 5.5859 5.6328 9.4883 4.8281 7.3828-1.5273 14.832-2.7734 22.23-3.7031 0.16016 1.168 0.43359 2.3047 0.64844 3.457 0.1875 0.98047 0.34375 1.9805 0.5625 2.9453 0.35938 1.5508 0.85547 3.0703 1.2656 4.5898 0.23828 0.78516 0.41797 1.5859 0.67187 2.3555 0.75 2.2539 1.6055 4.4688 2.5586 6.6289 0.21484 0.47656 0.48047 0.92969 0.69922 1.4102 0.77734 1.707 1.582 3.3438 2.4766 4.957 0.43359 0.77734 0.92969 1.5078 1.3906 2.2773 0.76172 1.2539 1.5117 2.5586 2.3398 3.7383 0.55469 0.80859 1.1602 1.5781 1.707 2.3633 0.85156 1.1094 1.6289 2.2188 2.5078 3.2773 0.64062 0.78516 1.332 1.5273 2.0039 2.2852 0.89844 1 1.793 1.9883 2.7305 2.9453 0.72656 0.73438 1.4844 1.4336 2.2383 2.1406 0.97266 0.90625 1.9453 1.7852 2.9531 2.6367 0.42578 0.35938 0.85156 0.74219 1.2617 1.0938h-28.758v17.066h153.6v-17.066h-28.578c0.40625-0.33203 0.85156-0.63281 1.2344-0.97266l0.11328-0.09375c2.5117-2.1406 4.8828-4.4375 7.0977-6.8789 0.20703-0.23047 0.41797-0.43359 0.625-0.66406 2.1211-2.3906 4.0898-4.9102 5.8867-7.5547 0.27344-0.39062 0.55469-0.77344 0.85547-1.1758 1.7344-2.6367 3.3047-5.375 4.6992-8.1992 0.12109-0.23047 0.27344-0.4375 0.39453-0.66797 57.582 28.262 93.004 76.91 93.004 128.61-0.45312 30.418-11.848 59.652-32.094 82.355z"/>
  <path d="m392.54 25.602h17.066v17.066h-17.066z"/>
  <path d="m409.6 42.668h17.066v17.066h-17.066z"/>
  <path d="m375.47 42.668h17.066v17.066h-17.066z"/>
  <path d="m392.54 59.734h17.066v17.066h-17.066z"/>
  <path d="m469.33 93.867h17.07v17.066h-17.07z"/>
  <path d="m486.4 110.93h17.066v17.066h-17.066z"/>
  <path d="m452.27 110.93h17.066v17.066h-17.066z"/>
  <path d="m469.33 128h17.07v17.066h-17.07z"/>
  <path d="m196.27 0h17.066v17.066h-17.066z"/>
  <path d="m213.33 17.066h17.066v17.066h-17.066z"/>
  <path d="m179.2 17.066h17.066v17.066h-17.066z"/>
  <path d="m196.27 34.133h17.066v17.066h-17.066z"/>
  <g fill="#000" aria-label="?">
   <path d="m288.28 145.16q-0.58594-1.5234-0.9375-3.3984-0.29297-1.9336-0.29297-3.6328 0-2.6953 0.52734-4.9219 0.52735-2.2266 1.582-4.1602 1.0547-1.9922 2.6367-3.75 1.582-1.8164 3.6914-3.5742 2.2266-1.875 3.8672-3.457 1.6992-1.6406 2.8711-3.2227 1.1719-1.6406 1.7578-3.3398 0.58594-1.7578 0.58594-3.8672 0-1.8164-0.64453-3.3398-0.64453-1.582-1.875-2.6953-1.1719-1.1133-2.9297-1.7578-1.6992-0.64453-3.8086-0.64453-4.5703 0-9.4922 1.9336-4.9219 1.875-9.3164 5.7422v-17.637q4.5117-2.6953 9.8438-4.043 5.332-1.3477 11.016-1.3477 5.4492 0 10.137 1.2305 4.6875 1.1719 8.1445 3.75 3.5156 2.5781 5.4492 6.6211 1.9922 3.9844 1.9922 9.6094 0 3.5742-0.82032 6.5039-0.82031 2.8711-2.4023 5.4492-1.582 2.5781-3.9258 4.9805-2.3438 2.3438-5.3906 4.8633-2.0508 1.6992-3.6328 3.1641-1.5234 1.4648-2.5781 2.9297-0.9961 1.4062-1.5234 3.0469-0.52735 1.582-0.52735 3.6328 0 1.4062 0.35157 2.8711 0.41015 1.4648 1.0547 2.4609zm8.5547 25.664q-4.6875 0-7.793-2.8125-3.1055-2.9297-3.1055-6.9141 0-4.1016 3.1055-6.8555t7.793-2.7539q4.6289 0 7.6758 2.7539 3.0469 2.6953 3.0469 6.8555 0 4.2188-2.9883 6.9726-3.0469 2.7539-7.7344 2.7539z" fill="#3e3d42" stroke-width=".75"/>
  </g>
  <text x="342.13693" y="138.75748" fill="#000000" font-family="sans-serif" font-size="30px" stroke-width=".75" style="line-height:1.25" xml:space="preserve"><tspan x="342.13693" y="138.75748" stroke-width=".75"/></text>
 </g>
</svg>
