<?xml version="1.0" encoding="iso-8859-1"?>
<!-- Generator: Adobe Illustrator 19.0.0, SVG Export Plug-In . SVG Version: 6.00 Build 0)  -->
<svg version="1.1" id="Capa_1" xmlns="http://www.w3.org/2000/svg" xmlns:xlink="http://www.w3.org/1999/xlink" x="0px" y="0px"
	 viewBox="0 0 512 512" style="enable-background:new 0 0 512 512;" xml:space="preserve">
<path style="fill:#CF4529;" d="M512,166c0-8.291-6.709-15-15-15s-15,6.709-15,15c0,5.284-1.082,10.285-2.763,15
	c-6.213-17.422-22.707-30-42.237-30c-24.814,0-45,20.186-45,45s20.186,45,45,45c3.104,0,6.134-0.317,9.062-0.917
	c1.185-0.145,2.406-0.161,3.572-0.361C443.791,257.8,425.999,271,406,271h-3.604c-8.291,0-15,6.709-15,15s6.709,15,15,15H406
	c41.353,0,76-33.647,76-75v-0.383C500.104,211.912,512,190.404,512,166z M437,181c8.276,0,15,6.724,15,15s-6.724,15-15,15
	s-15-6.724-15-15S428.724,181,437,181z"/>
<path style="fill:#EC7838;" d="M226,152c-28.2,0-55.499,5.099-81.301,15.3c-41.698-32.4-101.499-29.401-139.6,8.399
	c-5.7,6-5.7,15.3,0,21.301L51.3,243.199c-6,9.901-10.801,19.501-14.101,29.399C16.199,276.499,0,294.8,0,317v30
	c0,24.899,20.099,45,45,45h6.599c9.901,16.199,23.8,31.199,39.401,43.799V497c0,8.399,6.599,15,15,15h60c8.401,0,15-6.601,15-15
	v-19.501C196,480.5,211,482,226,482s30-1.5,45-4.501V497c0,8.399,6.599,15,15,15h60c8.401,0,15-6.601,15-15v-61.201
	C399.101,404.9,421,362,421,317C421,226.099,333.401,152,226,152z"/>
<path style="fill:#DB632C;" d="M421,317c0,45-21.899,87.9-60,118.799V497c0,8.399-6.599,15-15,15h-60c-8.401,0-15-6.601-15-15
	v-19.501C256,480.5,241,482,226,482V152C333.401,152,421,226.099,421,317z"/>
<path style="fill:#5C5F66;" d="M105.854,301.293c-8.291,0-15.146-6.855-15.146-15.146S97.563,271,105.854,271
	S121,277.855,121,286.146S114.145,301.293,105.854,301.293z M120.707,286.146H121H120.707z M105.854,286.146h0.293H105.854z"/>
<path style="fill:#8C5731;" d="M286.601,237.7c-2.701,8.099-11.1,12.299-18.9,9.899c-13.5-4.2-27.601-6.599-41.7-6.599
	s-28.2,2.399-41.7,6.599c-7.8,2.401-16.199-1.8-18.9-9.899c-2.399-7.8,1.8-16.201,9.901-18.9c16.199-5.402,33.3-7.8,50.7-7.8
	s34.501,2.399,50.7,7.8C284.801,221.499,288.999,229.9,286.601,237.7z"/>
<path style="fill:#FFDE33;" d="M226,150c-41.353,0-75-33.647-75-75s33.647-75,75-75s75,33.647,75,75S267.353,150,226,150z"/>
<path style="fill:#804426;" d="M286.601,237.7c-2.701,8.099-11.1,12.299-18.9,9.899c-13.5-4.2-27.601-6.599-41.7-6.599v-30
	c17.401,0,34.501,2.399,50.7,7.8C284.801,221.499,288.999,229.9,286.601,237.7z"/>
<path style="fill:#FFBC33;" d="M301,75c0-41.353-33.647-75-75-75v150C267.353,150,301,116.353,301,75z"/>
<g>
</g>
<g>
</g>
<g>
</g>
<g>
</g>
<g>
</g>
<g>
</g>
<g>
</g>
<g>
</g>
<g>
</g>
<g>
</g>
<g>
</g>
<g>
</g>
<g>
</g>
<g>
</g>
<g>
</g>
</svg>
